<svg xmlns="http://www.w3.org/2000/svg" width="19" height="11" viewBox="0 0 19 11"><g><g opacity="-1"><path fill="#fff" d="M9.524 11.015h1.113s.336-.038.508-.225c.158-.171.152-.494.152-.494s-.021-1.51.672-1.731c.683-.22 1.56 1.458 2.49 2.104.704.488 1.238.38 1.238.38l2.487-.034s1.3-.081.684-1.115c-.05-.085-.36-.765-1.85-2.162-1.559-1.463-1.35-1.226.529-3.757 1.144-1.54 1.6-2.481 1.458-2.884-.136-.384-.978-.283-.978-.283l-2.8.018s-.207-.029-.361.064c-.15.091-.247.304-.247.304s-.443 1.192-1.034 2.206c-1.247 2.14-1.745 2.253-1.95 2.12-.473-.31-.355-1.244-.355-1.907 0-2.074.311-2.939-.606-3.163-.304-.074-.528-.123-1.307-.131-.999-.01-1.844.003-2.323.24-.319.158-.564.51-.415.53.186.024.605.114.827.42.287.394.277 1.28.277 1.28s.165 2.44-.385 2.744c-.378.208-.895-.217-2.007-2.158-.57-.994-1-2.093-1-2.093s-.082-.206-.23-.316C3.93.84 3.68.797 3.68.797L1.02.814s-.4.012-.547.187c-.13.156-.01.48-.01.48s2.082 4.925 4.441 7.407c2.163 2.276 4.619 2.127 4.619 2.127z"/><path fill="#fff" d="M9.524 11.015h1.113s.336-.038.508-.225c.158-.171.152-.494.152-.494s-.021-1.51.672-1.731c.683-.22 1.56 1.458 2.49 2.104.704.488 1.238.38 1.238.38l2.487-.034s1.3-.081.684-1.115c-.05-.085-.36-.765-1.85-2.162-1.559-1.463-1.35-1.226.529-3.757 1.144-1.54 1.6-2.481 1.458-2.884-.136-.384-.978-.283-.978-.283l-2.8.018s-.207-.029-.361.064c-.15.091-.247.304-.247.304s-.443 1.192-1.034 2.206c-1.247 2.14-1.745 2.253-1.95 2.12-.473-.31-.355-1.244-.355-1.907 0-2.074.311-2.939-.606-3.163-.304-.074-.528-.123-1.307-.131-.999-.01-1.844.003-2.323.24-.319.158-.564.51-.415.53.186.024.605.114.827.42.287.394.277 1.28.277 1.28s.165 2.44-.385 2.744c-.378.208-.895-.217-2.007-2.158-.57-.994-1-2.093-1-2.093s-.082-.206-.23-.316C3.93.84 3.68.797 3.68.797L1.02.814s-.4.012-.547.187c-.13.156-.01.48-.01.48s2.082 4.925 4.441 7.407c2.163 2.276 4.619 2.127 4.619 2.127z"/></g></g></svg>