<svg xmlns="http://www.w3.org/2000/svg" width="36" height="36" viewBox="0 0 36 36"><g><g><path fill="#fff" d="M18.015 36C8.093 36 0 27.938 0 17.984 0 8.031 8.062 0 18.015 0 27.97 0 36 8.062 36 17.984 36 27.907 27.938 36 18.015 36zm0-33.489c-8.527 0-15.472 6.946-15.472 15.473 0 8.527 6.945 15.473 15.473 15.473 8.527 0 15.472-6.946 15.472-15.473 0-8.527-6.945-15.473-15.472-15.473zM16.31 26.976a1.242 1.242 0 0 1-.9.373 1.273 1.273 0 0 1-.9-2.17L21.8 17.89l-7.286-7.287a1.273 1.273 0 0 1 1.798-1.798l8.186 8.186c.248.248.372.558.372.9 0 .34-.124.65-.372.899z"/></g></g></svg>