<svg xmlns="http://www.w3.org/2000/svg" width="28" height="30" viewBox="0 0 28 30"><g><g opacity=".25"><path fill="#fff" d="M15.653 0c3.699 0 6.405 1.053 8.272 2.418 1.749 1.284 2.941 3.065 3.578 5.34.61 2.14.662 4.455.157 6.944-.914 4.496-2.891 8.096-5.933 10.798-3.138 2.784-6.54 4.5-11.015 4.5H3.785c-1.688 0-2.398-.612-2.95-1.188-.554-.575-1.067-1.768-.73-3.428L3.613 8.12a6.012 6.012 0 0 0 6.733.953L7.266 24.23h3.464c5.306 0 8.459-3.647 9.658-9.549 1.096-5.391-.52-8.912-5.907-8.912h-1.133a6.29 6.29 0 0 0 .424-2.278c0-1.294-.39-2.497-1.056-3.491z"/></g></g></svg>