<svg xmlns="http://www.w3.org/2000/svg" width="36" height="36" viewBox="0 0 36 36"><g><g><path fill="#fff" d="M0 17.984C0 8.062 8.03 0 17.984 0 27.938 0 36 8.03 36 17.984 36 27.938 27.907 36 17.984 36 8.062 36 0 27.907 0 17.984zm2.512 0c0 8.527 6.945 15.473 15.472 15.473s15.473-6.946 15.473-15.473c0-8.527-6.945-15.473-15.473-15.473-8.527 0-15.472 6.946-15.472 15.473zm8.992.807a1.243 1.243 0 0 1-.372-.9c0-.34.124-.65.372-.899l8.186-8.186a1.273 1.273 0 0 1 1.798 1.798l-7.287 7.287 7.287 7.287a1.273 1.273 0 0 1-1.798 1.798z"/></g></g></svg>