<svg xmlns="http://www.w3.org/2000/svg" width="20" height="20" viewBox="0 0 20 20"><g><g><path fill="#485368" d="M19.24 17.343l-1.019 1.02a1.192 1.192 0 0 1-1.181.304l-.214.213c-.743.743-1.779 1.12-3.022 1.12-.758 0-1.592-.14-2.485-.423-2.22-.704-4.573-2.221-6.624-4.272C2.643 13.254 1.126 10.9.422 8.68c-.718-2.268-.515-4.165.57-5.37.015-.021.341-.35.341-.35a1.2 1.2 0 0 1 .304-1.182L2.656.76c.227-.226.528-.351.848-.351.32 0 .622.125.849.351L8.27 4.68a1.201 1.201 0 0 1 0 1.696L7.253 7.394a1.197 1.197 0 0 1-1.182.304l-.385.384c-.273.274.147 1.974 2.202 4.03 2.056 2.055 3.756 2.474 4.03 2.201l.384-.385a1.2 1.2 0 0 1 .304-1.181l1.019-1.019a1.201 1.201 0 0 1 1.696 0l3.92 3.919a1.201 1.201 0 0 1 0 1.696zM2.485 2.627l1.96 1.96L6.39 6.53l.014.015 1.02-1.02-3.92-3.918zm13.6 15.297l-3.04-3.042-.28.28c-.29.29-.673.42-1.114.42-1.31 0-3.137-1.148-4.611-2.622-1.97-1.97-3.358-4.568-2.203-5.725h.001l.279-.28-3.041-3.041-.108.108c-.864.863-1.006 2.389-.402 4.296.647 2.04 2.06 4.22 3.977 6.139 1.918 1.917 4.098 3.33 6.139 3.976 1.907.605 3.432.462 4.295-.4v-.001zm2.307-1.429l-3.919-3.919-1.02 1.02 3.92 3.918 1.02-1.019zm-1.435-7.412a.6.6 0 0 1-1.2 0A4.808 4.808 0 0 0 14.34 5.66a4.808 4.808 0 0 0-3.423-1.418.6.6 0 0 1 0-1.2 6 6 0 0 1 4.27 1.77 6.001 6.001 0 0 1 1.77 4.271zm3.043 0a.6.6 0 0 1-1.2 0c0-2.106-.82-4.085-2.309-5.574a7.832 7.832 0 0 0-5.575-2.31.6.6 0 0 1 0-1.2c2.427 0 4.708.946 6.423 2.661A9.023 9.023 0 0 1 20 9.083zm-6.086 0a.6.6 0 0 1-1.2 0c0-.487-.181-.927-.526-1.272a1.74 1.74 0 0 0-1.27-.526h-.001a.6.6 0 1 1 0-1.2c.812 0 1.545.304 2.12.878.574.575.877 1.308.877 2.12z"/></g></g></svg>